<?xml version="1.0" encoding="utf-8"?>
<!-- Generator: Adobe Illustrator 19.2.1, SVG Export Plug-In . SVG Version: 6.00 Build 0)  -->
<svg version="1.1" id="Layer_1" xmlns="http://www.w3.org/2000/svg" xmlns:xlink="http://www.w3.org/1999/xlink" x="0px" y="0px"
	 viewBox="0 0 212.5 212.5" style="enable-background:new 0 0 212.5 212.5;" xml:space="preserve">
<style type="text/css">
	.st0{fill:none;stroke:#000000;stroke-width:1.4173;stroke-miterlimit:10;}
	.st1{fill:#FFFFFF;}
</style>
<path class="st0" d="M29.6,193.4"/>
<g id="_x34_JrOJO.tif">
	<g>
		<g>
			<path class="st1" d="M-122.9,1.7c27.3,0,54.7,0,82,0c0,65.7,0,131.3,0,197c-36.3,0-72.7,0-109,0c0-56.7,0-113.3,0-170
				c1.3,1,2.7,1.9,3.8,3c9.8,9.7,19.6,19.5,29.3,29.3c2.9,2.9,5.7,6,7.9,8.3c9.2-9.2,17.7-17.7,26.3-26.4c-12-12-24.5-24.5-36.9-37
				C-120.8,4.6-121.8,3-122.9,1.7z M-145.9,107.6c0,21.2-0.1,41.5,0.1,61.8c0,1.4,1.9,3.4,3.3,4.1c15,7.6,30,15.2,45.1,22.5
				c1.9,0.9,4.9,0.9,6.7,0c15-7.2,29.8-14.9,44.7-22.1c3-1.5,4-3.1,4-6.4c-0.2-18.5-0.1-37-0.1-55.5c0-1.2-0.2-2.4-0.3-4.2
				c-16.2,8.1-31.8,15.9-47.3,23.9c-3.1,1.6-5.6,1.7-8.7,0C-113.8,123.6-129.4,115.9-145.9,107.6z M-144.1,102.7
				c1.3,0.6,1.7,0.8,2.1,1c15.3,7.7,30.6,15.4,46,22.9c1.3,0.6,3.6,0.3,5-0.4c14.6-7.2,29.2-14.5,43.7-21.8c0.9-0.5,1.7-1.2,2.9-2.1
				c-16.2-8.1-31.7-15.9-47.4-23.6c-1.3-0.6-3.6-0.3-5,0.4c-9.1,4.4-18.2,9-27.2,13.5C-130.4,95.8-136.7,99-144.1,102.7z"/>
			<path d="M-122.9,1.7c1.1,1.4,2.1,2.9,3.3,4.1c12.4,12.5,24.9,24.9,36.9,37C-91.3,51.5-99.8,60-109,69.2c-2.2-2.3-5-5.4-7.9-8.3
				c-9.7-9.8-19.5-19.6-29.3-29.3c-1.1-1.1-2.5-2-3.8-3c0-0.7,0-1.3,0-2c8.3-8.3,16.7-16.7,25-25C-124.3,1.7-123.6,1.7-122.9,1.7z"
				/>
			<path class="st1" d="M-124.9,1.7c-8.3,8.3-16.7,16.7-25,25c0-8.3,0-16.7,0-25C-141.6,1.7-133.3,1.7-124.9,1.7z"/>
			<path d="M-145.9,107.6c16.5,8.3,32.1,16,47.6,24c3.2,1.6,5.6,1.6,8.7,0c15.5-8,31.1-15.7,47.3-23.9c0.1,1.7,0.3,3,0.3,4.2
				c0,18.5-0.1,37,0.1,55.5c0,3.3-1,5-4,6.4c-15,7.3-29.7,14.9-44.7,22.1c-1.8,0.9-4.9,0.9-6.7,0c-15.1-7.3-30.2-14.8-45.1-22.5
				c-1.5-0.8-3.3-2.7-3.3-4.1C-146,149-145.9,128.7-145.9,107.6z"/>
			<path d="M-144.1,102.7c7.4-3.7,13.7-6.9,20-10.1c9.1-4.5,18.1-9.2,27.2-13.5c1.4-0.7,3.7-1,5-0.4c15.7,7.6,31.3,15.5,47.4,23.6
				c-1.2,0.9-1.9,1.7-2.9,2.1c-14.6,7.3-29.1,14.6-43.7,21.8c-1.4,0.7-3.7,1-5,0.4c-15.4-7.5-30.7-15.2-46-22.9
				C-142.4,103.5-142.9,103.3-144.1,102.7z M-114.2,109.4c3.8,3.4,6.9,3.7,10.8,1.4c4.4-2.6,9.1-4.7,13.7-7
				c5.3-2.6,10.5-5.3,15.8-7.9c0-0.5-0.1-1.1-0.1-1.6c-2.5-0.4-5.6-1.8-7.6-0.9C-92.5,98.3-103,103.9-114.2,109.4z"/>
			<path class="st1" d="M-114.2,109.4c11.2-5.6,21.7-11.1,32.6-16c2-0.9,5,0.6,7.6,0.9c0,0.5,0.1,1.1,0.1,1.6
				c-5.3,2.6-10.5,5.3-15.8,7.9c-4.6,2.3-9.3,4.3-13.7,7C-107.3,113.1-110.4,112.9-114.2,109.4z"/>
		</g>
	</g>
	<g>
		<polygon points="36.9,7.7 9.5,25.1 38.7,71.1 66.1,53.7 36.9,7.7 		"/>
	</g>
	<g>
		<rect x="67.6" y="98.3" transform="matrix(0.8437 -0.5369 0.5369 0.8437 -42.009 63.3923)" width="40.5" height="11"/>
		<polygon points="102,88.3 67.8,110.1 73.7,119.3 107.9,97.6 102,88.3 		"/>
	</g>
	<g>
		<rect x="122.2" y="63.7" transform="matrix(0.8437 -0.5369 0.5369 0.8437 -25.7259 95.3138)" width="57.2" height="56.2"/>
		<path class="st1" d="M159.4,54.7l28.6,45l-45.8,29.2l-28.6-45L159.4,54.7 M160.3,50.8L109.7,83l31.7,49.8l50.6-32.2L160.3,50.8
			L160.3,50.8z"/>
	</g>
	<g>
		<rect x="118.2" y="79.3" transform="matrix(0.8437 -0.5369 0.5369 0.8437 -37.5782 98.284)" width="63.5" height="68.8"/>
		<path class="st1" d="M157.9,69.6l35.4,55.7l-51.2,32.6l-35.4-55.7L157.9,69.6 M158.7,65.6l-56,35.6l38.5,60.4l56-35.6L158.7,65.6
			L158.7,65.6z"/>
	</g>
</g>
</svg>
